<svg xmlns="http://www.w3.org/2000/svg" viewBox="0 0 583.78 538.5"><defs><style>.cls-1{fill:none;stroke:#000000;stroke-miterlimit:10;stroke-width:6px;}</style></defs><g id="Layer_1" data-name="Layer 1"><polygon class="cls-1" points="141.7 5.5 5.01 138.55 62.4 169.85 144.31 404.11 87.44 508.46 172.49 494.9 249.7 534.55 290.4 466.72 358.75 522.55 461.01 471.42 478.22 231.94 576.83 136.46 434.92 127.07 362.92 291.94 333.18 258.03 240.61 307.5 141.7 5.5"/></g><g id="Layer_2" data-name="Layer 2"><polyline class="cls-1" points="134.3 375.48 157.09 391.33 207.05 357.36 251.79 438.29 220.49 442.98 219.7 468.03 237.7 479.76 262.75 468.81 279.81 484.37"/><polyline class="cls-1" points="100.64 279.22 139.88 319.33 147.7 358.46 213.44 330.29 243.18 355.33 275.27 431.24 299.53 464.9 312 484.37"/><polyline class="cls-1" points="83.89 231.32 89.01 198.03 134.3 168.29 147.7 172.98 185.36 138.79"/><polyline class="cls-1" points="194.22 165.86 164.14 205.85 140.51 205.07 113.24 241.76 128.14 279.22 151.62 309.37 175.09 325.59 215.01 298.43 251.01 337.33 283.96 399.11 301.88 440.63 330.05 478.98 374.5 514.67"/><polyline class="cls-1" points="231.35 279.22 212.66 263.76 169.62 274.72 157.09 266.9 171.96 259.07 175.09 247.33 194.22 243.42 216.94 235.22"/><polyline class="cls-1" points="257.58 298.43 271.79 319.35 302.66 397.59 315.96 404.63 355.44 453.98 366.35 432.06 386.4 421.07 408.31 369.14 435.7 322.46 452.14 309.37 457.62 291.94 445.09 274.72 389.39 231.32"/><polyline class="cls-1" points="399.2 213.94 428.37 241.76 446.49 236.39 460.71 214.07 452.97 170.82 421.53 162.81"/><polyline class="cls-1" points="549.23 134.63 524.92 143.24 507.7 176.11 526.65 185.05"/><polyline class="cls-1" points="471.94 319.35 445.09 335.58 417.47 384.6 402.83 453.98 402.83 479.76 416.76 493.54"/><polyline class="cls-1" points="470.77 335.58 453.43 346.14 430.67 388.93 424.75 426.55 422.2 462.08 430.54 486.65"/><polyline class="cls-1" points="454.95 474.44 437.8 460.2 442.14 403.07 453.43 390.55 469.07 359.28"/><polyline class="cls-1" points="98.31 47.74 126.57 68.9 134.3 99.42 121.88 123.68 93.7 120.55 70.53 134.63 18.6 125.32"/><polyline class="cls-1" points="134.62 421.89 146.92 439.85 146.92 475.07 164.92 484.37 194.22 478.68 222.83 500.11 257.58 500.11 266.14 507.16"/><polyline class="cls-1" points="287.4 282.5 297.18 298.43 297.18 329.5 310.54 348.37 317.56 381.79 354.31 406.44 380.94 388.2 399.2 351.42 427.09 309.37 437.8 295.07 402.83 273.16 380.94 250.67"/><polyline class="cls-1" points="310.73 270.03 330.05 293.5 330.05 316.98 336.31 339.68 333.18 359.28 351.96 381.79 369.18 376.46 376.18 339.5 399.2 325.7 409.88 309.37 402.83 291.16 374.5 265.42"/><polyline class="cls-1" points="34.05 154.39 72.59 157.73 96.83 154.39 107.01 163.59 83.89 176.11 72.59 198.99"/><polyline class="cls-1" points="111.43 34.97 144.43 57.16 157.09 101.77 146.14 128.37 157.09 118.98 177.42 114.56"/><polyline class="cls-1" points="111.43 464.44 126.57 475.07 122.66 486.65 140.51 500"/><polyline class="cls-1" points="512.25 198.99 481.88 182.06 485.79 159.84 471.94 142.46 429.95 138.44"/></g></svg>